<svg width="375.4549926757812px" height="120.8px" xmlns="http://www.w3.org/2000/svg" viewBox="62.272503662109386 14.600000000000001 375.4549926757812 120.8" style="background: rgba(0, 0, 0, 0);" preserveAspectRatio="xMidYMid"><defs><linearGradient id="editing-gradient-gradient" x1="0" x2="1" y1="0.5" y2="0.5" gradientUnits="objectBoundingBox"><stop offset="0" stop-color="#f0f"></stop><stop offset="1" stop-color="#0ff"></stop></linearGradient></defs><g><g transform="translate(117.93501901626587, 99)"><path d="M6.21-31.17L6.21-31.17L6.21-31.17Q4.03-32.83 4.03-36.38L4.03-36.38L4.03-36.38Q4.03-39.94 6.37-41.79L6.37-41.79L6.37-41.79Q8.70-43.65 12.74-43.65L12.74-43.65L12.74-43.65Q15.30-43.65 21.38-42.75L21.38-42.75L25.73-42.11L25.73-42.11Q27.90-41.86 30.18-41.86L30.18-41.86L30.18-41.86Q32.45-41.86 33.98-42.82L33.98-42.82L33.98-42.82Q36.29-40.77 36.29-37.82L36.29-37.82L36.29-37.82Q36.29-34.88 33.66-32.77L33.66-32.77L33.66-32.77Q30.98-30.53 27.52-30.53L27.52-30.53L27.52-30.53Q25.86-30.53 23.17-30.98L23.17-30.98L23.17-30.98Q20.03-21.12 20.03-14.27L20.03-14.27L20.03-14.27Q20.03-7.42 23.49-3.84L23.49-3.84L23.49-3.84Q21.89-0.96 19.52 0.16L19.52 0.16L19.52 0.16Q17.15 1.28 13.60 1.28L13.60 1.28L13.60 1.28Q10.05 1.28 7.84-0.67L7.84-0.67L7.84-0.67Q5.63-2.62 5.63-6.66L5.63-6.66L5.63-6.66Q5.63-11.33 8.19-19.01L8.19-19.01L8.19-19.01Q10.75-26.62 14.59-32.45L14.59-32.45L14.59-32.45Q12.74-32.64 10.82-32.64L10.82-32.64L10.82-32.64Q6.85-32.64 6.21-31.17ZM57.22-10.82L57.22-10.82L57.22-10.82Q58.82-9.73 58.82-7.33L58.82-7.33L58.82-7.33Q58.82-4.93 57.60-3.39L57.60-3.39L57.60-3.39Q56.38-1.86 54.40-0.83L54.40-0.83L54.40-0.83Q50.30 1.28 45.89 1.28L45.89 1.28L45.89 1.28Q41.47 1.28 38.88 0.32L38.88 0.32L38.88 0.32Q36.29-0.64 34.56-2.43L34.56-2.43L34.56-2.43Q31.17-5.82 31.17-12.03L31.17-12.03L31.17-12.03Q31.17-21.70 36.42-27.58L36.42-27.58L36.42-27.58Q42.05-33.92 51.84-33.92L51.84-33.92L51.84-33.92Q57.92-33.92 60.93-31.36L60.93-31.36L60.93-31.36Q63.17-29.44 63.17-26.30L63.17-26.30L63.17-26.30Q63.17-15.04 43.71-15.04L43.71-15.04L43.71-15.04Q43.46-13.38 43.46-11.97L43.46-11.97L43.46-11.97Q43.46-9.02 44.77-7.90L44.77-7.90L44.77-7.90Q46.08-6.78 48.51-6.78L48.51-6.78L48.51-6.78Q50.94-6.78 53.54-7.90L53.54-7.90L53.54-7.90Q56.13-9.02 57.22-10.82ZM44.16-17.79L44.16-17.79L44.16-17.79Q48.70-17.79 51.33-20.61L51.33-20.61L51.33-20.61Q53.95-23.30 53.95-27.58L53.95-27.58L53.95-27.58Q53.95-29.06 53.41-29.86L53.41-29.86L53.41-29.86Q52.86-30.66 51.78-30.66L51.78-30.66L51.78-30.66Q50.69-30.66 49.76-30.24L49.76-30.24L49.76-30.24Q48.83-29.82 47.87-28.42L47.87-28.42L47.87-28.42Q45.50-25.22 44.16-17.79ZM73.86 0.19L73.86 0.19L73.86 0.19Q71.81 1.28 68.99 1.28L68.99 1.28L68.99 1.28Q66.18 1.28 64.64-0.16L64.64-0.16L64.64-0.16Q63.10-1.60 63.10-4.38L63.10-4.38L63.10-4.38Q63.10-7.17 65.06-9.89L65.06-9.89L65.06-9.89Q67.01-12.61 69.92-14.14L69.92-14.14L69.92-14.14Q72.83-15.68 74.88-16.58L74.88-16.58L70.85-25.86L70.85-25.86Q69.76-28.22 67.71-28.22L67.71-28.22L67.20-28.16L67.01-28.16L67.01-28.16Q67.39-30.40 70.02-32.13L70.02-32.13L70.02-32.13Q72.64-33.92 75.65-33.92L75.65-33.92L75.65-33.92Q80.51-33.92 82.75-29.06L82.75-29.06L83.26-28.03L86.02-21.25L86.02-21.25Q87.74-22.02 88.48-23.46L88.48-23.46L88.48-23.46Q89.22-24.90 89.22-27.74L89.22-27.74L89.22-27.74Q89.22-30.59 87.68-32.38L87.68-32.38L87.68-32.38Q90.11-33.92 93.31-33.92L93.31-33.92L93.31-33.92Q99.07-33.92 99.07-28.35L99.07-28.35L99.07-28.35Q99.07-22.27 91.46-18.75L91.46-18.75L87.62-16.96L91.07-8.06L91.07-8.06Q92.10-5.38 93.95-4.22L93.95-4.22L93.95-4.22Q94.72-3.71 95.62-3.65L95.62-3.65L95.62-3.65Q93.70-0.51 89.54 0.90L89.54 0.90L89.54 0.90Q88.26 1.28 86.53 1.28L86.53 1.28L86.53 1.28Q84.80 1.28 82.82 0.10L82.82 0.10L82.82 0.10Q80.83-1.09 80.13-2.94L80.13-2.94L76.61-12.10L76.61-12.10Q73.02-10.50 73.02-4.67L73.02-4.67L73.02-4.67Q73.02-1.98 73.86 0.19ZM101.82-6.40L101.82-6.40L101.82-6.40Q101.82-8.13 102.72-12.48L102.72-12.48L106.11-29.76L102.34-29.76L102.59-31.68L102.59-31.68Q110.27-33.98 117.70-39.62L117.70-39.62L120.77-39.62L119.23-32.64L124.22-32.64L123.65-29.76L118.72-29.76L115.46-12.48L115.46-12.48Q114.62-8.51 114.62-7.17L114.62-7.17L114.62-7.17Q114.62-4.10 117.31-3.46L117.31-3.46L117.31-3.46Q116.67-1.28 114.37 0L114.37 0L114.37 0Q112.06 1.28 108.80 1.28L108.80 1.28L108.80 1.28Q105.54 1.28 103.68-0.77L103.68-0.77L103.68-0.77Q101.82-2.82 101.82-6.40ZM125.12-9.47L125.12-9.47L125.12-9.47Q125.12-11.97 125.76-15.17L125.76-15.17L130.94-42.24L145.09-42.24L139.97-14.98L139.97-14.98Q139.39-11.97 139.39-9.76L139.39-9.76L139.39-9.76Q139.39-7.55 140.32-6.40L140.32-6.40L140.32-6.40Q141.25-5.25 142.98-5.25L142.98-5.25L142.98-5.25Q144.70-5.25 145.79-5.70L145.79-5.70L145.79-5.70Q146.88-6.14 147.78-7.23L147.78-7.23L147.78-7.23Q149.50-9.41 150.59-14.98L150.59-14.98L155.78-42.24L165.44-42.24L160.32-15.04L160.32-15.04Q158.53-5.95 153.60-2.30L153.60-2.30L153.60-2.30Q148.80 1.28 139.33 1.28L139.33 1.28L139.33 1.28Q132.22 1.28 128.45-1.79L128.45-1.79L128.45-1.79Q125.12-4.48 125.12-9.47ZM167.74-6.40L167.74-6.40L167.74-6.40Q167.74-8.13 168.64-12.48L168.64-12.48L172.03-29.76L168.26-29.76L168.51-31.68L168.51-31.68Q176.19-33.98 183.62-39.62L183.62-39.62L186.69-39.62L185.15-32.64L190.14-32.64L189.57-29.76L184.64-29.76L181.38-12.48L181.38-12.48Q180.54-8.51 180.54-7.17L180.54-7.17L180.54-7.17Q180.54-4.10 183.23-3.46L183.23-3.46L183.23-3.46Q182.59-1.28 180.29 0L180.29 0L180.29 0Q177.98 1.28 174.72 1.28L174.72 1.28L174.72 1.28Q171.46 1.28 169.60-0.77L169.60-0.77L169.60-0.77Q167.74-2.82 167.74-6.40ZM205.18-3.52L205.18-3.52L205.18-3.52Q203.20 1.28 196.86 1.28L196.86 1.28L196.86 1.28Q193.60 1.28 191.55-0.96L191.55-0.96L191.55-0.96Q189.82-2.94 189.82-4.93L189.82-4.93L189.82-4.93Q189.82-10.11 192.19-20.22L192.19-20.22L194.56-32.64L207.55-33.92L203.65-13.70L203.65-13.70Q202.56-8.96 202.56-7.30L202.56-7.30L202.56-7.30Q202.56-3.65 205.18-3.52ZM195.71-41.54L195.71-41.54L195.71-41.54Q195.71-44.03 197.79-45.38L197.79-45.38L197.79-45.38Q199.87-46.72 202.88-46.72L202.88-46.72L202.88-46.72Q205.89-46.72 207.71-45.38L207.71-45.38L207.71-45.38Q209.54-44.03 209.54-41.54L209.54-41.54L209.54-41.54Q209.54-39.04 207.52-37.76L207.52-37.76L207.52-37.76Q205.50-36.48 202.50-36.48L202.50-36.48L202.50-36.48Q199.49-36.48 197.60-37.76L197.60-37.76L197.60-37.76Q195.71-39.04 195.71-41.54ZM225.92-3.52L225.92-3.52L225.92-3.52Q223.94 1.28 217.60 1.28L217.60 1.28L217.60 1.28Q214.40 1.28 212.35-0.96L212.35-0.96L212.35-0.96Q210.69-2.82 210.69-4.93L210.69-4.93L210.69-4.93Q210.69-9.73 212.93-20.22L212.93-20.22L217.60-44.80L230.59-46.08L224.38-13.70L224.38-13.70Q223.30-8.96 223.30-7.30L223.30-7.30L223.30-7.30Q223.30-3.65 225.92-3.52ZM250.50-22.46L250.50-22.46L250.50-22.46Q251.39-24.83 251.39-26.88L251.39-26.88L251.39-26.88Q251.39-30.66 248.32-30.66L248.32-30.66L248.32-30.66Q246.72-30.66 245.41-29.22L245.41-29.22L245.41-29.22Q244.10-27.78 244.10-25.98L244.10-25.98L244.10-25.98Q244.10-24.70 245.12-23.68L245.12-23.68L245.12-23.68Q246.59-22.27 250.37-19.97L250.37-19.97L250.37-19.97Q254.14-17.66 255.58-15.78L255.58-15.78L255.58-15.78Q257.02-13.89 257.02-11.30L257.02-11.30L257.02-11.30Q257.02-8.70 255.78-6.34L255.78-6.34L255.78-6.34Q254.53-3.97 252.29-2.30L252.29-2.30L252.29-2.30Q247.49 1.28 239.81 1.28L239.81 1.28L239.81 1.28Q235.65 1.28 232.45-0.90L232.45-0.90L232.45-0.90Q229.25-3.01 229.25-5.50L229.25-5.50L229.25-5.50Q229.25-8 231.07-9.47L231.07-9.47L231.07-9.47Q232.90-10.94 235.58-10.94L235.58-10.94L235.58-10.94Q238.27-10.94 239.94-9.92L239.94-9.92L239.94-9.92Q239.10-7.81 239.10-6.40L239.10-6.40L239.10-6.40Q239.10-2.18 242.69-2.18L242.69-2.18L242.69-2.18Q244.22-2.18 245.25-3.14L245.25-3.14L245.25-3.14Q246.27-4.10 246.27-5.76L246.27-5.76L246.27-5.76Q246.27-9.02 240.77-12.48L240.77-12.48L240.77-12.48Q236.29-15.42 235.26-16.58L235.26-16.58L235.26-16.58Q233.54-18.62 233.54-21.18L233.54-21.18L233.54-21.18Q233.54-23.74 234.75-26.18L234.75-26.18L234.75-26.18Q235.97-28.61 238.21-30.34L238.21-30.34L238.21-30.34Q242.88-33.92 251.01-33.92L251.01-33.92L251.01-33.92Q255.17-33.92 257.63-32.26L257.63-32.26L257.63-32.26Q260.10-30.59 260.10-27.78L260.10-27.78L260.10-27.78Q260.10-24.96 258.40-23.36L258.40-23.36L258.40-23.36Q256.70-21.76 253.63-21.76L253.63-21.76L253.63-21.76Q251.52-21.76 250.50-22.46Z" fill="url(#editing-gradient-gradient)"></path></g></g><style>text {
  font-size: 64px;
  font-family: Arial Black;
  dominant-baseline: central;
  text-anchor: middle;
}</style></svg>