<svg width="362.47999267578126px" height="120.8px" xmlns="http://www.w3.org/2000/svg" viewBox="68.76000366210937 14.600000000000001 362.47999267578126 120.8" style="background: rgba(0, 0, 0, 0);" preserveAspectRatio="xMidYMid"><defs><linearGradient id="editing-outline-gradient" x1="-0.41354545764260087" x2="1.4135454576426008" y1="0.09326335692419985" y2="0.9067366430758002"><stop offset="0" stop-color="#ee4208"></stop><stop offset="1" stop-color="#4139ff"></stop></linearGradient><filter id="editing-outline" x="-100%" y="-100%" width="300%" height="300%"><feMorphology in="SourceGraphic" operator="dilate" radius="1" result="outline"></feMorphology><feComposite operator="out" in="outline" in2="SourceAlpha"></feComposite></filter></defs><g filter="url(#editing-outline)"><g transform="translate(123.66501688957214, 99)"><path d="M2.11-6.40L2.11-6.40L2.11-6.40Q2.11-8.13 3.01-12.48L3.01-12.48L6.40-29.76L2.62-29.76L2.88-31.68L2.88-31.68Q10.56-33.98 17.98-39.62L17.98-39.62L21.06-39.62L19.52-32.64L24.51-32.64L23.94-29.76L19.01-29.76L15.74-12.48L15.74-12.48Q14.91-8.51 14.91-7.17L14.91-7.17L14.91-7.17Q14.91-4.10 17.60-3.46L17.60-3.46L17.60-3.46Q16.96-1.28 14.66 0L14.66 0L14.66 0Q12.35 1.28 9.09 1.28L9.09 1.28L9.09 1.28Q5.82 1.28 3.97-0.77L3.97-0.77L3.97-0.77Q2.11-2.82 2.11-6.40ZM49.86-10.82L49.86-10.82L49.86-10.82Q51.46-9.73 51.46-7.33L51.46-7.33L51.46-7.33Q51.46-4.93 50.24-3.39L50.24-3.39L50.24-3.39Q49.02-1.86 47.04-0.83L47.04-0.83L47.04-0.83Q42.94 1.28 38.53 1.28L38.53 1.28L38.53 1.28Q34.11 1.28 31.52 0.32L31.52 0.32L31.52 0.32Q28.93-0.64 27.20-2.43L27.20-2.43L27.20-2.43Q23.81-5.82 23.81-12.03L23.81-12.03L23.81-12.03Q23.81-21.70 29.06-27.58L29.06-27.58L29.06-27.58Q34.69-33.92 44.48-33.92L44.48-33.92L44.48-33.92Q50.56-33.92 53.57-31.36L53.57-31.36L53.57-31.36Q55.81-29.44 55.81-26.30L55.81-26.30L55.81-26.30Q55.81-15.04 36.35-15.04L36.35-15.04L36.35-15.04Q36.10-13.38 36.10-11.97L36.10-11.97L36.10-11.97Q36.10-9.02 37.41-7.90L37.41-7.90L37.41-7.90Q38.72-6.78 41.15-6.78L41.15-6.78L41.15-6.78Q43.58-6.78 46.18-7.90L46.18-7.90L46.18-7.90Q48.77-9.02 49.86-10.82ZM36.80-17.79L36.80-17.79L36.80-17.79Q41.34-17.79 43.97-20.61L43.97-20.61L43.97-20.61Q46.59-23.30 46.59-27.58L46.59-27.58L46.59-27.58Q46.59-29.06 46.05-29.86L46.05-29.86L46.05-29.86Q45.50-30.66 44.42-30.66L44.42-30.66L44.42-30.66Q43.33-30.66 42.40-30.24L42.40-30.24L42.40-30.24Q41.47-29.82 40.51-28.42L40.51-28.42L40.51-28.42Q38.14-25.22 36.80-17.79ZM66.50 0.19L66.50 0.19L66.50 0.19Q64.45 1.28 61.63 1.28L61.63 1.28L61.63 1.28Q58.82 1.28 57.28-0.16L57.28-0.16L57.28-0.16Q55.74-1.60 55.74-4.38L55.74-4.38L55.74-4.38Q55.74-7.17 57.70-9.89L57.70-9.89L57.70-9.89Q59.65-12.61 62.56-14.14L62.56-14.14L62.56-14.14Q65.47-15.68 67.52-16.58L67.52-16.58L63.49-25.86L63.49-25.86Q62.40-28.22 60.35-28.22L60.35-28.22L59.84-28.16L59.65-28.16L59.65-28.16Q60.03-30.40 62.66-32.13L62.66-32.13L62.66-32.13Q65.28-33.92 68.29-33.92L68.29-33.92L68.29-33.92Q73.15-33.92 75.39-29.06L75.39-29.06L75.90-28.03L78.66-21.25L78.66-21.25Q80.38-22.02 81.12-23.46L81.12-23.46L81.12-23.46Q81.86-24.90 81.86-27.74L81.86-27.74L81.86-27.74Q81.86-30.59 80.32-32.38L80.32-32.38L80.32-32.38Q82.75-33.92 85.95-33.92L85.95-33.92L85.95-33.92Q91.71-33.92 91.71-28.35L91.71-28.35L91.71-28.35Q91.71-22.27 84.10-18.75L84.10-18.75L80.26-16.96L83.71-8.06L83.71-8.06Q84.74-5.38 86.59-4.22L86.59-4.22L86.59-4.22Q87.36-3.71 88.26-3.65L88.26-3.65L88.26-3.65Q86.34-0.51 82.18 0.90L82.18 0.90L82.18 0.90Q80.90 1.28 79.17 1.28L79.17 1.28L79.17 1.28Q77.44 1.28 75.46 0.10L75.46 0.10L75.46 0.10Q73.47-1.09 72.77-2.94L72.77-2.94L69.25-12.10L69.25-12.10Q65.66-10.50 65.66-4.67L65.66-4.67L65.66-4.67Q65.66-1.98 66.50 0.19ZM94.46-6.40L94.46-6.40L94.46-6.40Q94.46-8.13 95.36-12.48L95.36-12.48L98.75-29.76L94.98-29.76L95.23-31.68L95.23-31.68Q102.91-33.98 110.34-39.62L110.34-39.62L113.41-39.62L111.87-32.64L116.86-32.64L116.29-29.76L111.36-29.76L108.10-12.48L108.10-12.48Q107.26-8.51 107.26-7.17L107.26-7.17L107.26-7.17Q107.26-4.10 109.95-3.46L109.95-3.46L109.95-3.46Q109.31-1.28 107.01 0L107.01 0L107.01 0Q104.70 1.28 101.44 1.28L101.44 1.28L101.44 1.28Q98.18 1.28 96.32-0.77L96.32-0.77L96.32-0.77Q94.46-2.82 94.46-6.40ZM137.09-2.69L137.09-2.69L137.09-2.69Q134.02 1.28 126.40 1.28L126.40 1.28L126.40 1.28Q122.43 1.28 119.55-1.12L119.55-1.12L119.55-1.12Q116.67-3.52 116.67-6.98L116.67-6.98L116.67-6.98Q116.67-8.90 116.86-9.86L116.86-9.86L121.15-32.64L134.14-33.92L129.47-9.22L129.47-9.22Q129.22-7.81 129.22-6.98L129.22-6.98L129.22-6.98Q129.22-3.26 131.46-3.26L131.46-3.26L131.46-3.26Q133.95-3.26 135.74-6.66L135.74-6.66L135.74-6.66Q136.32-7.74 136.58-9.15L136.58-9.15L141.12-32.64L153.73-33.92L148.99-8.96L148.99-8.96Q148.80-8 148.80-6.98L148.80-6.98L148.80-6.98Q148.80-5.95 149.38-4.83L149.38-4.83L149.38-4.83Q149.95-3.71 151.81-3.46L151.81-3.46L151.81-3.46Q151.42-1.92 150.08-0.90L150.08-0.90L150.08-0.90Q147.26 1.28 144.22 1.28L144.22 1.28L144.22 1.28Q141.18 1.28 139.39 0.19L139.39 0.19L139.39 0.19Q137.60-0.90 137.09-2.69ZM158.21-6.40L158.21-6.40L158.21-6.40Q158.21-8.13 159.10-12.48L159.10-12.48L162.50-29.76L158.72-29.76L158.98-31.68L158.98-31.68Q166.66-33.98 174.08-39.62L174.08-39.62L177.15-39.62L175.62-32.64L180.61-32.64L180.03-29.76L175.10-29.76L171.84-12.48L171.84-12.48Q171.01-8.51 171.01-7.17L171.01-7.17L171.01-7.17Q171.01-4.10 173.70-3.46L173.70-3.46L173.70-3.46Q173.06-1.28 170.75 0L170.75 0L170.75 0Q168.45 1.28 165.18 1.28L165.18 1.28L165.18 1.28Q161.92 1.28 160.06-0.77L160.06-0.77L160.06-0.77Q158.21-2.82 158.21-6.40ZM195.65-3.52L195.65-3.52L195.65-3.52Q193.66 1.28 187.33 1.28L187.33 1.28L187.33 1.28Q184.06 1.28 182.02-0.96L182.02-0.96L182.02-0.96Q180.29-2.94 180.29-4.93L180.29-4.93L180.29-4.93Q180.29-10.11 182.66-20.22L182.66-20.22L185.02-32.64L198.02-33.92L194.11-13.70L194.11-13.70Q193.02-8.96 193.02-7.30L193.02-7.30L193.02-7.30Q193.02-3.65 195.65-3.52ZM186.18-41.54L186.18-41.54L186.18-41.54Q186.18-44.03 188.26-45.38L188.26-45.38L188.26-45.38Q190.34-46.72 193.34-46.72L193.34-46.72L193.34-46.72Q196.35-46.72 198.18-45.38L198.18-45.38L198.18-45.38Q200-44.03 200-41.54L200-41.54L200-41.54Q200-39.04 197.98-37.76L197.98-37.76L197.98-37.76Q195.97-36.48 192.96-36.48L192.96-36.48L192.96-36.48Q189.95-36.48 188.06-37.76L188.06-37.76L188.06-37.76Q186.18-39.04 186.18-41.54ZM216.38-3.52L216.38-3.52L216.38-3.52Q214.40 1.28 208.06 1.28L208.06 1.28L208.06 1.28Q204.86 1.28 202.82-0.96L202.82-0.96L202.82-0.96Q201.15-2.82 201.15-4.93L201.15-4.93L201.15-4.93Q201.15-9.73 203.39-20.22L203.39-20.22L208.06-44.80L221.06-46.08L214.85-13.70L214.85-13.70Q213.76-8.96 213.76-7.30L213.76-7.30L213.76-7.30Q213.76-3.65 216.38-3.52ZM240.96-22.46L240.96-22.46L240.96-22.46Q241.86-24.83 241.86-26.88L241.86-26.88L241.86-26.88Q241.86-30.66 238.78-30.66L238.78-30.66L238.78-30.66Q237.18-30.66 235.87-29.22L235.87-29.22L235.87-29.22Q234.56-27.78 234.56-25.98L234.56-25.98L234.56-25.98Q234.56-24.70 235.58-23.68L235.58-23.68L235.58-23.68Q237.06-22.27 240.83-19.97L240.83-19.97L240.83-19.97Q244.61-17.66 246.05-15.78L246.05-15.78L246.05-15.78Q247.49-13.89 247.49-11.30L247.49-11.30L247.49-11.30Q247.49-8.70 246.24-6.34L246.24-6.34L246.24-6.34Q244.99-3.97 242.75-2.30L242.75-2.30L242.75-2.30Q237.95 1.28 230.27 1.28L230.27 1.28L230.27 1.28Q226.11 1.28 222.91-0.90L222.91-0.90L222.91-0.90Q219.71-3.01 219.71-5.50L219.71-5.50L219.71-5.50Q219.71-8 221.54-9.47L221.54-9.47L221.54-9.47Q223.36-10.94 226.05-10.94L226.05-10.94L226.05-10.94Q228.74-10.94 230.40-9.92L230.40-9.92L230.40-9.92Q229.57-7.81 229.57-6.40L229.57-6.40L229.57-6.40Q229.57-2.18 233.15-2.18L233.15-2.18L233.15-2.18Q234.69-2.18 235.71-3.14L235.71-3.14L235.71-3.14Q236.74-4.10 236.74-5.76L236.74-5.76L236.74-5.76Q236.74-9.02 231.23-12.48L231.23-12.48L231.23-12.48Q226.75-15.42 225.73-16.58L225.73-16.58L225.73-16.58Q224-18.62 224-21.18L224-21.18L224-21.18Q224-23.74 225.22-26.18L225.22-26.18L225.22-26.18Q226.43-28.61 228.67-30.34L228.67-30.34L228.67-30.34Q233.34-33.92 241.47-33.92L241.47-33.92L241.47-33.92Q245.63-33.92 248.10-32.26L248.10-32.26L248.10-32.26Q250.56-30.59 250.56-27.78L250.56-27.78L250.56-27.78Q250.56-24.96 248.86-23.36L248.86-23.36L248.86-23.36Q247.17-21.76 244.10-21.76L244.10-21.76L244.10-21.76Q241.98-21.76 240.96-22.46Z" fill="url(#editing-outline-gradient)"></path></g></g><style>text {
  font-size: 64px;
  font-family: Arial Black;
  dominant-baseline: central;
  text-anchor: middle;
}</style></svg>