<svg width="439.8180297851562px" height="120.8px" xmlns="http://www.w3.org/2000/svg" viewBox="30.090985107421886 14.600000000000001 439.8180297851562 120.8" style="background: rgba(0, 0, 0, 0);" preserveAspectRatio="xMidYMid"><defs><linearGradient id="editing-outline-gradient" x1="-0.41354545764260087" x2="1.4135454576426008" y1="0.09326335692419985" y2="0.9067366430758002"><stop offset="0" stop-color="#ee4208"></stop><stop offset="1" stop-color="#4139ff"></stop></linearGradient><filter id="editing-outline" x="-100%" y="-100%" width="300%" height="300%"><feMorphology in="SourceGraphic" operator="dilate" radius="1" result="outline"></feMorphology><feComposite operator="out" in="outline" in2="SourceAlpha"></feComposite></filter></defs><g filter="url(#editing-outline)"><g transform="translate(94.11076211929321, 97.46500015258789)"><path d="M6.21-31.17L6.21-31.17L6.21-31.17Q4.03-32.83 4.03-36.38L4.03-36.38L4.03-36.38Q4.03-39.94 6.37-41.79L6.37-41.79L6.37-41.79Q8.70-43.65 12.74-43.65L12.74-43.65L12.74-43.65Q15.30-43.65 21.38-42.75L21.38-42.75L25.73-42.11L25.73-42.11Q27.90-41.86 30.18-41.86L30.18-41.86L30.18-41.86Q32.45-41.86 33.98-42.82L33.98-42.82L33.98-42.82Q36.29-40.77 36.29-37.82L36.29-37.82L36.29-37.82Q36.29-34.88 33.66-32.77L33.66-32.77L33.66-32.77Q30.98-30.53 27.52-30.53L27.52-30.53L27.52-30.53Q25.86-30.53 23.17-30.98L23.17-30.98L23.17-30.98Q20.03-21.12 20.03-14.27L20.03-14.27L20.03-14.27Q20.03-7.42 23.49-3.84L23.49-3.84L23.49-3.84Q21.89-0.96 19.52 0.16L19.52 0.16L19.52 0.16Q17.15 1.28 13.60 1.28L13.60 1.28L13.60 1.28Q10.05 1.28 7.84-0.67L7.84-0.67L7.84-0.67Q5.63-2.62 5.63-6.66L5.63-6.66L5.63-6.66Q5.63-11.33 8.19-19.01L8.19-19.01L8.19-19.01Q10.75-26.62 14.59-32.45L14.59-32.45L14.59-32.45Q12.74-32.64 10.82-32.64L10.82-32.64L10.82-32.64Q6.85-32.64 6.21-31.17ZM61.57-9.86L61.57-9.86L61.57-9.86Q62.78-8.32 62.78-5.82L62.78-5.82L62.78-5.82Q62.78-2.37 60.22-0.54L60.22-0.54L60.22-0.54Q57.66 1.28 53.63 1.28L53.63 1.28L53.63 1.28Q51.33 1.28 47.81 0.77L47.81 0.77L47.81 0.77Q40.90-0.32 38.78-0.32L38.78-0.32L38.78-0.32Q36.67-0.32 35.84-0.22L35.84-0.22L35.84-0.22Q35.01-0.13 33.66 0L33.66 0L41.54-42.24L69.12-42.24L69.12-42.24Q69.12-38.34 67.23-36.29L67.23-36.29L67.23-36.29Q65.34-34.24 61.63-34.24L61.63-34.24L61.63-34.24Q57.92-34.24 54.14-35.97L54.14-35.97L52.16-24.77L63.55-24.77L63.55-24.77Q63.55-21.38 61.89-19.49L61.89-19.49L61.89-19.49Q60.22-17.60 57.44-17.60L57.44-17.60L57.44-17.60Q54.66-17.60 52.93-18.24L52.93-18.24L52.93-18.24Q51.20-18.88 51.01-19.07L51.01-19.07L48.70-6.98L48.70-6.98Q50.24-6.78 53.12-6.78L53.12-6.78L53.12-6.78Q58.05-6.78 61.57-9.86ZM70.66-39.87L70.66-39.87L70.66-39.87Q73.66-43.39 78.66-43.39L78.66-43.39L78.66-43.39Q82.62-43.39 84.74-41.86L84.74-41.86L84.74-41.86Q86.85-40.26 88.26-36.35L88.26-36.35L90.94-28.74L100.61-42.18L109.25-42.18L93.57-21.38L97.60-9.98L97.60-9.98Q98.50-7.42 100.06-5.54L100.06-5.54L100.06-5.54Q101.63-3.65 103.04-3.33L103.04-3.33L103.04-3.33Q101.76-0.90 99.55 0.19L99.55 0.19L99.55 0.19Q97.34 1.28 94.11 1.28L94.11 1.28L94.11 1.28Q90.88 1.28 88.61-0.83L88.61-0.83L88.61-0.83Q86.34-2.94 84.61-7.68L84.61-7.68L82.75-12.80L73.09 0L65.22 0L79.94-20.42L75.33-33.28L75.33-33.28Q74.30-36.10 73.28-37.54L73.28-37.54L73.28-37.54Q72.26-38.98 70.66-39.87ZM112.51-31.17L112.51-31.17L112.51-31.17Q110.34-32.83 110.34-36.38L110.34-36.38L110.34-36.38Q110.34-39.94 112.67-41.79L112.67-41.79L112.67-41.79Q115.01-43.65 119.04-43.65L119.04-43.65L119.04-43.65Q121.60-43.65 127.68-42.75L127.68-42.75L132.03-42.11L132.03-42.11Q134.21-41.86 136.48-41.86L136.48-41.86L136.48-41.86Q138.75-41.86 140.29-42.82L140.29-42.82L140.29-42.82Q142.59-40.77 142.59-37.82L142.59-37.82L142.59-37.82Q142.59-34.88 139.97-32.77L139.97-32.77L139.97-32.77Q137.28-30.53 133.82-30.53L133.82-30.53L133.82-30.53Q132.16-30.53 129.47-30.98L129.47-30.98L129.47-30.98Q126.34-21.12 126.34-14.27L126.34-14.27L126.34-14.27Q126.34-7.42 129.79-3.84L129.79-3.84L129.79-3.84Q128.19-0.96 125.82 0.16L125.82 0.16L125.82 0.16Q123.46 1.28 119.90 1.28L119.90 1.28L119.90 1.28Q116.35 1.28 114.14-0.67L114.14-0.67L114.14-0.67Q111.94-2.62 111.94-6.66L111.94-6.66L111.94-6.66Q111.94-11.33 114.50-19.01L114.50-19.01L114.50-19.01Q117.06-26.62 120.90-32.45L120.90-32.45L120.90-32.45Q119.04-32.64 117.12-32.64L117.12-32.64L117.12-32.64Q113.15-32.64 112.51-31.17ZM141.76-9.47L141.76-9.47L141.76-9.47Q141.76-11.97 142.40-15.17L142.40-15.17L147.58-42.24L161.73-42.24L156.61-14.98L156.61-14.98Q156.03-11.97 156.03-9.76L156.03-9.76L156.03-9.76Q156.03-7.55 156.96-6.40L156.96-6.40L156.96-6.40Q157.89-5.25 159.62-5.25L159.62-5.25L159.62-5.25Q161.34-5.25 162.43-5.70L162.43-5.70L162.43-5.70Q163.52-6.14 164.42-7.23L164.42-7.23L164.42-7.23Q166.14-9.41 167.23-14.98L167.23-14.98L172.42-42.24L182.08-42.24L176.96-15.04L176.96-15.04Q175.17-5.95 170.24-2.30L170.24-2.30L170.24-2.30Q165.44 1.28 155.97 1.28L155.97 1.28L155.97 1.28Q148.86 1.28 145.09-1.79L145.09-1.79L145.09-1.79Q141.76-4.48 141.76-9.47ZM188.48-31.17L188.48-31.17L188.48-31.17Q186.30-32.83 186.30-36.38L186.30-36.38L186.30-36.38Q186.30-39.94 188.64-41.79L188.64-41.79L188.64-41.79Q190.98-43.65 195.01-43.65L195.01-43.65L195.01-43.65Q197.57-43.65 203.65-42.75L203.65-42.75L208.00-42.11L208.00-42.11Q210.18-41.86 212.45-41.86L212.45-41.86L212.45-41.86Q214.72-41.86 216.26-42.82L216.26-42.82L216.26-42.82Q218.56-40.77 218.56-37.82L218.56-37.82L218.56-37.82Q218.56-34.88 215.94-32.77L215.94-32.77L215.94-32.77Q213.25-30.53 209.79-30.53L209.79-30.53L209.79-30.53Q208.13-30.53 205.44-30.98L205.44-30.98L205.44-30.98Q202.30-21.12 202.30-14.27L202.30-14.27L202.30-14.27Q202.30-7.42 205.76-3.84L205.76-3.84L205.76-3.84Q204.16-0.96 201.79 0.16L201.79 0.16L201.79 0.16Q199.42 1.28 195.87 1.28L195.87 1.28L195.87 1.28Q192.32 1.28 190.11-0.67L190.11-0.67L190.11-0.67Q187.90-2.62 187.90-6.66L187.90-6.66L187.90-6.66Q187.90-11.33 190.46-19.01L190.46-19.01L190.46-19.01Q193.02-26.62 196.86-32.45L196.86-32.45L196.86-32.45Q195.01-32.64 193.09-32.64L193.09-32.64L193.09-32.64Q189.12-32.64 188.48-31.17ZM229.76 0L215.81 0L223.94-42.24L238.02-42.24L229.76 0ZM266.18-9.86L266.18-9.86L266.18-9.86Q267.39-8.32 267.39-5.34L267.39-5.34L267.39-5.34Q267.39-2.37 265.12-0.54L265.12-0.54L265.12-0.54Q262.85 1.28 258.88 1.28L258.88 1.28L258.88 1.28Q256.58 1.28 252.99 0.77L252.99 0.77L252.99 0.77Q245.95-0.32 243.94-0.32L243.94-0.32L243.94-0.32Q241.92-0.32 241.09-0.22L241.09-0.22L241.09-0.22Q240.26-0.13 238.91 0L238.91 0L246.66-42.24L260.67-42.24L254.27-7.04L254.27-7.04Q255.10-6.91 255.87-6.91L255.87-6.91L257.47-6.91L257.47-6.91Q262.85-6.91 266.18-9.86ZM296.64-29.57L296.64-29.57L296.64-29.57Q297.60-31.49 297.60-33.28L297.60-33.28L297.60-33.28Q297.60-35.07 297.41-36.06L297.41-36.06L297.41-36.06Q297.22-37.06 296.77-37.82L296.77-37.82L296.77-37.82Q295.81-39.49 293.89-39.49L293.89-39.49L293.89-39.49Q291.52-39.49 289.60-37.76L289.60-37.76L289.60-37.76Q287.55-35.97 287.55-33.15L287.55-33.15L287.55-33.15Q287.55-31.36 288.80-29.98L288.80-29.98L288.80-29.98Q290.05-28.61 291.97-27.33L291.97-27.33L291.97-27.33Q293.89-26.05 296.06-24.77L296.06-24.77L296.06-24.77Q298.24-23.49 300.16-21.95L300.16-21.95L300.16-21.95Q304.58-18.43 304.58-13.70L304.58-13.70L304.58-13.70Q304.58-10.50 302.88-7.78L302.88-7.78L302.88-7.78Q301.18-5.06 298.37-3.07L298.37-3.07L298.37-3.07Q292.22 1.28 284.10 1.28L284.10 1.28L284.10 1.28Q277.50 1.28 274.11-0.86L274.11-0.86L274.11-0.86Q270.72-3.01 270.72-6.27L270.72-6.27L270.72-6.27Q270.72-12.10 275.26-13.57L275.26-13.57L275.26-13.57Q276.54-14.02 278.50-14.02L278.50-14.02L278.50-14.02Q280.45-14.02 282.69-13.18L282.69-13.18L282.69-13.18Q281.66-10.56 281.66-8.19L281.66-8.19L281.66-8.19Q281.66-3.07 285.31-3.07L285.31-3.07L285.31-3.07Q287.68-3.07 289.63-4.80L289.63-4.80L289.63-4.80Q291.58-6.53 291.58-8.48L291.58-8.48L291.58-8.48Q291.58-10.43 290.34-11.84L290.34-11.84L290.34-11.84Q289.09-13.25 287.23-14.37L287.23-14.37L287.23-14.37Q285.38-15.49 283.23-16.58L283.23-16.58L283.23-16.58Q281.09-17.66 279.23-19.20L279.23-19.20L279.23-19.20Q274.88-22.72 274.88-28.35L274.88-28.35L274.88-28.35Q274.88-32 276.67-34.85L276.67-34.85L276.67-34.85Q278.46-37.70 281.34-39.62L281.34-39.62L281.34-39.62Q287.10-43.52 294.18-43.52L294.18-43.52L294.18-43.52Q301.25-43.52 304.67-41.41L304.67-41.41L304.67-41.41Q308.10-39.30 308.10-35.71L308.10-35.71L308.10-35.71Q308.10-32.58 305.66-30.59L305.66-30.59L305.66-30.59Q303.55-28.93 300.99-28.93L300.99-28.93L300.99-28.93Q298.43-28.93 296.64-29.57Z" fill="url(#editing-outline-gradient)"></path></g></g><style>text {
  font-size: 64px;
  font-family: Arial Black;
  dominant-baseline: central;
  text-anchor: middle;
}</style></svg>